# xmcd CD database file
#
# Track frame offsets:
#	150
#	18337
#	33667
#	50713
#	69146
#	88181
#	107497
#	123250
#	142286
#	158476
#
# Disc length: 2406 seconds
#
# Revision: 0
# Processed by: cddbd v1.5.2PL0 Copyright (c) Steve Scherf et al.
# Submitted via: CDex 1.70beta2
#
DISCID=8209640a
DTITLE=Johanne Cantara - C'est merveilleux
DYEAR=2009
DGENRE=Jazz
TTITLE0=J'attendrai
TTITLE1=C'est merveilleux
TTITLE2=India Song
TTITLE3=Tout le jour, toute la nuit
TTITLE4=Carmen
TTITLE5=La fille d'Ipanema
TTITLE6=C'est si doux
TTITLE7=Le poin￧onneur des Lilas
TTITLE8=Les yeux ouverts
TTITLE9=C'est le printemps
EXTD=YEAR: 2009
EXTT0=
EXTT1=
EXTT2=
EXTT3=
EXTT4=
EXTT5=
EXTT6=
EXTT7=
EXTT8=
EXTT9=
PLAYORDER=
